<svg width="128" height="128" viewBox="0 0 128 128" fill="none" xmlns="http://www.w3.org/2000/svg">
<path d="M93.0238 5.8498L85.2255 1.3475L85.2165 1.3756C84.7644 1.14447 84.2578 1.04133 83.7514 1.07732C83.245 1.11331 82.7581 1.28707 82.3433 1.5798L37.8586 27.263C35.426 28.6675 33.4539 32.4353 33.4539 35.679V118.572C33.4539 120.347 34.0563 121.57 34.9889 122.108L34.9765 122.135L42.7748 126.637L45.7588 117.341L82.3433 96.2191C84.776 94.8146 86.748 91.0465 86.748 87.8031V19.174L93.0238 5.8498Z" fill="#D5DAE0"/>
<path d="M56.6511 33.9768L55.8511 22.8868C55.6332 19.8637 53.8045 16.602 51.6211 15.3412C49.4373 14.0803 47.6086 15.2304 47.3911 18.0018L46.5911 28.1683" fill="#D5DAE0"/>
<path d="M56.6511 33.9768L55.8511 22.8868C55.6332 19.8637 53.8045 16.602 51.6211 15.3412C49.4373 14.0803 47.6086 15.2304 47.3911 18.0018L46.5911 28.1683" stroke="#627386" stroke-width="2" stroke-linecap="round" stroke-linejoin="round"/>
<path d="M85.2164 1.3756C84.7644 1.14447 84.2577 1.04133 83.7513 1.07732C83.2449 1.11331 82.758 1.28707 82.3432 1.5798L37.8585 27.263C36.5748 28.0911 35.535 29.2463 34.8462 30.6098L86.7479 60.5754V19.174L93.0237 5.8498L85.2254 1.3475L85.2164 1.3756Z" fill="#F2F4F6"/>
<path d="M90.1415 100.722L45.6569 126.405C43.2242 127.809 41.2522 126.318 41.2522 123.075V40.1815C41.2522 36.938 43.2242 33.17 45.6569 31.7655L90.1415 6.0823C92.5741 4.6778 94.5462 6.1686 94.5462 9.4123V92.3056C94.5462 95.5491 92.5741 99.3171 90.1415 100.722Z" fill="white" stroke="#B8BFCA" stroke-width="2" stroke-linecap="round" stroke-linejoin="round"/>
<path d="M93.0113 5.8762L93.0237 5.8499L85.2254 1.3475L85.2164 1.3756C84.7644 1.14447 84.2577 1.04133 83.7513 1.07732C83.2449 1.11331 82.758 1.28707 82.3432 1.5798L37.8585 27.263C37.5532 27.4416 37.2645 27.6471 36.9958 27.8771C36.7767 28.0688 36.5686 28.2727 36.3725 28.4878C36.3173 28.5468 36.2577 28.5944 36.2035 28.6555C35.6781 29.253 35.2228 29.9086 34.8464 30.6095V30.6095C33.9769 32.1609 33.499 33.9009 33.454 35.6787V118.572C33.454 120.346 34.0564 121.57 34.989 122.108L34.9766 122.134L42.7749 126.637L42.7839 126.609C43.2359 126.84 43.7425 126.943 44.2489 126.907C44.7553 126.871 45.2422 126.697 45.657 126.404L90.1417 100.721C92.5744 99.3166 94.5464 95.5485 94.5464 92.3052V9.412C94.5462 7.6379 93.9439 6.4146 93.0113 5.8762Z" stroke="#627386" stroke-width="2" stroke-linecap="round" stroke-linejoin="round"/>
<path d="M78.4375 9.84668C78.2195 6.82398 76.3908 3.56218 74.207 2.30118C73.8064 2.01653 73.3362 1.84559 72.8463 1.80649C72.3565 1.76738 71.8651 1.86158 71.4245 2.07908L71.4238 2.07758L48.8378 15.1176L48.8422 15.1281C49.2813 14.9089 49.7717 14.813 50.261 14.8505C50.7504 14.8881 51.2203 15.0577 51.6209 15.3414C53.8047 16.6021 55.6335 19.8639 55.8515 22.887L56.6515 33.977L79.2375 20.937L78.4375 9.84668Z" fill="#F2F4F6"/>
<path d="M51.6209 15.3413C53.2178 16.4118 54.4333 17.9622 55.0918 19.7685L77.6842 6.72488C77.0232 4.91906 75.8056 3.36997 74.207 2.30118C73.8064 2.01653 73.3362 1.84559 72.8463 1.80649C72.3565 1.76738 71.8651 1.86158 71.4245 2.07908L71.4238 2.07758L48.8378 15.1176L48.8422 15.1281C49.2813 14.9089 49.7716 14.8129 50.261 14.8505C50.7503 14.888 51.2203 15.0576 51.6209 15.3413Z" fill="white"/>
<path d="M78.4374 9.84668C78.2194 6.82398 76.3907 3.56218 74.2069 2.30118C73.8064 2.01653 73.3362 1.84559 72.8463 1.80649C72.3564 1.76738 71.8651 1.86158 71.4244 2.07908L71.4237 2.07758L48.8377 15.1176L48.8384 15.1193C48.8284 15.1249 48.8213 15.1354 48.8116 15.141C49.2531 14.913 49.7488 14.8111 50.2443 14.8463C50.7399 14.8816 51.2162 15.0528 51.6208 15.341C53.8046 16.6017 55.6334 19.8635 55.8514 22.8866L56.6514 33.9766L79.2374 20.9366L78.4374 9.84668Z" stroke="#627386" stroke-width="2" stroke-linecap="round" stroke-linejoin="round"/>
<path d="M62.914 8.82118L66.674 6.65058C66.8243 6.02148 66.903 5.37738 66.9085 4.73058C66.9085 1.78918 65.1202 0.437283 62.9142 1.71058C60.7082 2.98388 58.9201 6.40198 58.9201 9.34328C58.9125 9.9021 58.9901 10.4588 59.1501 10.9943L62.914 8.82118Z" fill="white"/>
<path d="M63.8862 7.45085C64.29 6.50186 64.1821 5.54734 63.6452 5.31887C63.1083 5.0904 62.3457 5.67451 61.9419 6.6235C61.5381 7.57249 61.6459 8.52701 62.1828 8.75547C62.7197 8.98394 63.4823 8.39984 63.8862 7.45085Z" fill="#B8BFCA"/>
<path d="M66.6738 6.65058C66.8241 6.02148 66.9028 5.37738 66.9083 4.73058C66.9083 1.78918 65.12 0.437283 62.914 1.71058C60.708 2.98388 58.9201 6.40198 58.9201 9.34328C58.9125 9.9021 58.9901 10.4588 59.1501 10.9943" stroke="#627386" stroke-width="2" stroke-linecap="round" stroke-linejoin="round"/>
<path d="M84.1669 51.5661L84.1697 51.5601L77.6223 47.7801L77.6195 47.7861C75.0135 46.2814 71.6172 46.4172 67.8995 48.5639C59.6927 53.3021 53.0396 66.0139 53.0396 76.9561C53.0396 82.941 55.0327 87.1511 58.1789 88.9675L58.1761 88.9736L64.7233 92.7536L64.7261 92.7478C67.3321 94.2524 70.7284 94.1164 74.4461 91.9698C82.6529 87.2316 89.3061 74.5198 89.3061 63.5776C89.3061 57.5927 87.313 53.3825 84.1669 51.5661Z" fill="#F2F4F6" stroke="#B8BFCA" stroke-width="2" stroke-linecap="round" stroke-linejoin="round"/>
<path d="M56.6759 61.897C54.3898 66.5949 53.1493 71.7326 53.04 76.9561C53.04 82.941 55.0331 87.1511 58.1793 88.9675L58.1765 88.9736L64.7238 92.7536L64.7266 92.7478C65.1035 92.9611 65.4983 93.1409 65.9066 93.2851L77.19 73.7409L56.6759 61.897Z" fill="#D5DAE0" stroke="#B8BFCA" stroke-width="2" stroke-linecap="round" stroke-linejoin="round"/>
<path d="M84.17 51.5601L77.6227 47.7801L77.6199 47.7861C75.0139 46.2814 71.6176 46.4172 67.8999 48.5639C59.6931 53.3021 53.0399 66.0139 53.0399 76.9561C53.0399 82.941 55.033 87.1511 58.1792 88.9675L58.1764 88.9736L64.7237 92.7536L66.5507 88.8836C66.9953 88.6802 67.4446 88.4526 67.8996 88.1897C76.1063 83.4516 82.7596 70.7397 82.7596 59.7978C82.7672 58.3278 82.6299 56.8608 82.3496 55.4178L84.17 51.5601Z" stroke="#B8BFCA" stroke-width="2" stroke-linecap="round" stroke-linejoin="round"/>
<path d="M86.322 77.2105C91.2551 65.6176 89.9374 53.9572 83.3788 51.1663C76.8201 48.3754 67.5042 55.5109 62.5711 67.1039C57.638 78.6968 58.9557 90.3572 65.5144 93.1481C72.073 95.9389 81.3889 88.8035 86.322 77.2105Z" fill="white" stroke="#B8BFCA" stroke-width="2" stroke-linecap="round" stroke-linejoin="round"/>
<path d="M74.4465 72.1572L86.7665 76.1248C88.3779 72.1345 89.239 67.881 89.3065 63.5781L74.4465 72.1572Z" fill="#F2F4F6" stroke="#B8BFCA" stroke-width="2" stroke-linecap="round" stroke-linejoin="round"/>
<path d="M86.7667 76.1248L74.4467 72.1572V91.9702C79.5748 89.0093 84.0961 82.935 86.7667 76.1248Z" fill="#E9F6FE" stroke="#91D2FB" stroke-width="2" stroke-linecap="round" stroke-linejoin="round"/>
<path d="M84.1669 51.5661L84.1697 51.5601L77.6223 47.7801L77.6195 47.7861C75.0135 46.2814 71.6172 46.4172 67.8995 48.5639C59.6927 53.3021 53.0396 66.0139 53.0396 76.9561C53.0396 82.941 55.0327 87.1511 58.1789 88.9675L58.1761 88.9736L64.7233 92.7536L64.7261 92.7478C67.3321 94.2524 70.7284 94.1164 74.4461 91.9698C82.6529 87.2316 89.3061 74.5198 89.3061 63.5776C89.3061 57.5927 87.3131 53.3825 84.1669 51.5661Z" stroke="#627386" stroke-width="2" stroke-linecap="round" stroke-linejoin="round"/>
</svg>
